<svg aria-hidden="true" style="position: absolute; width: 0; height: 0; overflow: hidden;" version="1.1" xmlns="http://www.w3.org/2000/svg" xmlns:xlink="http://www.w3.org/1999/xlink">
  <defs>
    <symbol id="icon-logo-blanka" viewBox="0 0 98 32">
      <path fill="#fff" style="fill: var(--color1, #fff)" d="M42.255 18.481c0-3.792-2.207-6.648-5.625-6.648-1.519 0-2.801 0.648-3.727 1.896v-6.072h-3.299v17.232h3.038v-1.848c0.973 1.344 2.35 2.088 3.988 2.088 3.418 0 5.625-2.904 5.625-6.648zM38.861 18.481c0 2.4-1.353 3.672-2.967 3.672-1.638 0-2.967-1.296-2.967-3.72s1.377-3.648 2.967-3.648c1.614 0 2.967 1.248 2.967 3.696zM46.505 24.889v-17.232h-3.323v17.232h3.323zM55.825 24.889h2.682v-8.064c0-3.144-1.946-4.992-5.269-4.992-3.062 0-5.175 1.92-5.364 4.872h2.967c0.119-1.44 0.973-2.28 2.397-2.28 1.377 0 2.184 0.84 2.184 2.28v0.768c-0.783-0.096-1.401-0.144-2.112-0.144-3.703 0-5.697 1.344-5.697 3.84 0 2.4 1.756 3.96 4.391 3.96 1.733 0 2.991-0.624 3.822-1.824v1.584zM50.722 21.073c0-1.152 0.926-1.752 2.801-1.752 0.57 0 1.116 0.048 1.899 0.168v0.912c0 1.488-1.021 2.424-2.706 2.424-1.234 0-1.994-0.672-1.994-1.752zM63.463 17.905c0-2.064 1.116-3.12 2.421-3.12 1.495 0 2.231 1.056 2.231 2.952v7.152h3.276v-8.28c0-3.096-1.757-4.776-4.296-4.776-1.662 0-2.967 0.792-3.893 2.064v-1.824h-3.038v12.816h3.299v-6.984zM76.347 24.889v-5.952l4.842 5.952h4.201l-5.863-6.672 5.246-6.144h-3.798l-4.629 5.424v-9.84h-3.299v17.232h3.299zM90.535 25.129c3.679 0 6.433-2.928 6.433-6.648 0-3.744-2.753-6.648-6.433-6.648s-6.432 2.904-6.432 6.648c0 3.72 2.753 6.648 6.432 6.648zM90.535 22.177c-1.638 0-3.038-1.32-3.038-3.696s1.4-3.672 3.038-3.672c1.638 0 3.038 1.296 3.038 3.672s-1.4 3.696-3.038 3.696z"></path>
      <path fill="#ff7043" style="fill: var(--color2, #ff7043)" d="M19.341 5.333h-4.396v15.111h4.396v-15.111z"></path>
      <path fill="#ff7043" style="fill: var(--color2, #ff7043)" d="M14.945 24.889v-4.444h-14.945v4.444h14.945z"></path>
      <path fill="#ff7043" style="fill: var(--color2, #ff7043)" d="M19.341 9.778v-4.444h-14.945v4.444h14.945z"></path>
      <path fill="#ff7043" style="fill: var(--color2, #ff7043)" d="M0 24.889h4.396v-15.111h-4.396v15.111z"></path>
    </symbol>
    <symbol id="icon-facebook" viewBox="0 0 18 32">
      <path d="M10.787 32v-14.597h4.899l0.734-5.689h-5.633v-3.632c0-1.647 0.457-2.769 2.819-2.769l3.012-0.001v-5.088c-0.521-0.069-2.309-0.224-4.389-0.224-4.343 0-7.316 2.651-7.316 7.519v4.195h-4.912v5.689h4.912v14.597h5.875z"></path>
    </symbol>
    <symbol id="icon-twitter" viewBox="0 0 39 32">
      <path d="M37.607 3.828c-0.243-0.26-0.631-0.325-0.945-0.158-0.381 0.175-0.777 0.317-1.182 0.425 0.601-0.749 1.055-1.604 1.339-2.521 0.078-0.318-0.049-0.65-0.319-0.836s-0.625-0.185-0.895 0.001c-1.255 0.694-2.595 1.224-3.986 1.575-1.494-1.486-3.517-2.319-5.624-2.316-1.681 0.037-3.319 0.545-4.726 1.465-2.993 1.686-3.513 5.577-3.293 7.987-5.549-0.468-10.668-3.175-14.178-7.499-0.144-0.221-0.383-0.361-0.646-0.378-0.263 0.018-0.499 0.165-0.63 0.394-1.623 2.81-1.488 6.303 0.347 8.98-0.236-0.158-0.488-0.347-0.74-0.551-0.235-0.233-0.591-0.294-0.89-0.153s-0.479 0.454-0.449 0.783c0.048 2.932 1.516 5.657 3.938 7.31l-0.614-0.173c-0.292-0.091-0.611-0.004-0.817 0.222s-0.262 0.551-0.144 0.834c1.236 2.793 3.658 4.885 6.601 5.703-2.683 1.55-5.79 2.201-8.869 1.859-0.372-0.046-0.725 0.177-0.844 0.533s0.030 0.746 0.355 0.932c3.704 2.161 7.921 3.287 12.209 3.261 6.057-0.049 11.798-2.708 15.754-7.294 3.941-4.224 6.014-9.857 5.75-15.628 1.404-1.073 2.613-2.378 3.576-3.86 0.164-0.286 0.133-0.645-0.079-0.898z"></path>
    </symbol>
    <symbol id="icon-ins" viewBox="0 0 32 32">
      <path d="M24 0h-16c-4.4 0-8 3.599-8 8v16c0 4.4 3.6 8 8 8h16c4.4 0 8-3.6 8-8v-16c0-4.401-3.6-8-8-8zM15.999 22.667c-3.682 0-6.667-2.986-6.667-6.666 0-3.682 2.984-6.667 6.667-6.667 3.681 0 6.667 2.984 6.667 6.667 0 3.681-2.986 6.666-6.667 6.666zM22.667 7.334c0 1.104 0.894 2 2 2s2-0.896 2-2c0-1.104-0.894-2-2-2s-2 0.896-2 2z"></path>
    </symbol>
    <symbol id="icon-webflow" viewBox="0 0 119 32">
      <path d="M37.993 12.299c0-2.133-2.047-4.371-5.604-4.371-3.989 0-8.369 2.937-9.040 8.8-0.685 5.92 2.983 8.551 6.68 8.551s5.633-1.447 7.613-3.376c-1.703-2.147-3.901-1.155-4.323-0.936-0.697 0.389-1.487 0.581-2.285 0.556-1.427 0-2.883-0.643-2.883-3.317 9.141-0.907 9.84-3.787 9.84-5.907h0.001zM33.463 12.649c-0.059 0.657-0.32 1.783-4.949 2.413 0.973-3.48 2.84-3.741 3.697-3.741 0.174-0.008 0.347 0.022 0.509 0.087s0.307 0.164 0.426 0.29c0.12 0.126 0.211 0.277 0.267 0.441s0.077 0.339 0.059 0.512l-0.009-0.003zM17.98 13.22l-2.125 6.709-1.5-11.649c-3.347 0-5.147 2.397-6.085 4.925l-2.592 6.739-0.364-6.667c-0.197-3.099-3.027-4.984-5.313-4.984l2.765 16.853c3.507-0.013 5.4-2.397 6.391-4.925l2.192-5.729c0.020 0.233 1.515 10.656 1.515 10.656 3.523 0 5.416-2.236 6.431-4.677l4.933-12.176c-3.473 0-5.304 2.383-6.249 4.925h0.003zM50.921 7.887c-2.169 0-3.827 1.184-5.227 2.923v-0.013l1.251-10.129c-2.883 0-5.227 2.515-5.677 6.256l-2.168 18.093c1.66 0 3.421-0.483 4.368-1.711 0.845 1.096 2.111 1.973 3.989 1.973 4.861 0 8.196-5.671 8.196-10.992-0.029-4.853-2.373-6.387-4.717-6.387l-0.015-0.013zM50.468 16.584c-0.507 2.967-2.155 4.984-3.74 4.984s-2.285-0.716-2.285-0.716c0.307-2.6 0.496-4.195 1.077-5.569s1.965-3.567 3.407-3.567c1.413 0 2.053 1.885 1.543 4.867l-0.001 0.001zM67.777 8.281h-3.392l0.013-0.176c0.233-2.221 0.757-3.391 2.485-3.581 1.18-0.117 1.704-0.731 1.835-1.403l0.423-2.353c-6.8-0.044-8.952 2.907-9.5 7.411l-0.013 0.103h-0.073c-1.107 0-2.328 1.257-2.533 2.851l-0.073 0.584h2.272l-1.907 15.813-0.584 2.836c0.073 0 0.16 0.013 0.232 0.013 3.187-0.117 5.227-2.645 5.677-6.315l1.488-12.351h1.067c1.048 0 2.272-1.053 2.485-2.807l0.099-0.625zM85.42 7.988c-3.916 0-7.613 2.893-8.747 7.44s0.584 9.924 6.347 9.924c5.763 0 9.063-5.6 9.063-10.261 0.005-4.633-3.123-7.104-6.661-7.104l-0.001 0.001zM87.007 16.436c-0.203 2.061-1.107 5.189-3.581 5.189s-2.14-3.653-1.9-5.393c0.263-1.856 1.296-4.501 3.523-4.501 2.003 0 2.191 2.383 1.96 4.707l-0.001-0.001zM111.433 13.205l-2.125 6.709c-0.057-0.527-1.499-11.649-1.499-11.649-3.347 0-5.139 2.397-6.077 4.925l-2.592 6.739c-0.013-0.483-0.364-6.667-0.364-6.667-0.211-3.099-3.037-4.984-5.333-4.984l2.751 16.853c3.507-0.013 5.4-2.397 6.391-4.925l2.184-5.729c0.013 0.233 1.515 10.656 1.515 10.656 3.523 0 5.408-2.236 6.431-4.677l4.937-12.176c-3.464 0-5.299 2.383-6.231 4.925h0.013zM70.98 0.765l-2.853 23.107-0.584 2.851c0.072 0 0.16 0.013 0.232 0.013 3.069-0.044 5.253-2.747 5.663-6.153l1.644-13.257c0.499-4.049-1.903-6.563-4.101-6.563v0.003z"></path>
    </symbol>
    <symbol id="icon-druk" viewBox="0 0 160 32">
      <path d="M0 31.451v-31.451h26.359c3.401 0 6.271 0.565 8.609 1.694 2.369 1.129 4.16 2.854 5.375 5.173 1.245 2.289 1.868 5.234 1.868 8.835 0 3.571-0.622 6.531-1.868 8.881-1.214 2.32-3.006 4.044-5.375 5.173-2.338 1.129-5.208 1.694-8.609 1.694h-26.359zM8.154 25.041h18.114c1.275 0 2.384-0.183 3.325-0.549s1.731-0.9 2.369-1.602c0.638-0.702 1.108-1.572 1.412-2.61s0.456-2.228 0.456-3.571v-1.923c0-1.373-0.152-2.579-0.456-3.617s-0.774-1.908-1.412-2.609-1.427-1.236-2.369-1.602c-0.941-0.366-2.050-0.549-3.325-0.549h-18.114v18.632z"></path>
      <path d="M47.215 31.451v-31.451h31.46c2.308 0 4.236 0.443 5.785 1.328 1.549 0.855 2.703 2.045 3.462 3.571 0.789 1.495 1.184 3.174 1.184 5.036 0 2.014-0.471 3.815-1.412 5.402-0.911 1.556-2.202 2.777-3.872 3.662l6.286 12.452h-9.11l-5.193-11.079h-20.437v11.079h-8.154zM55.369 14.283h21.712c1.124 0 2.020-0.366 2.688-1.099 0.698-0.763 1.048-1.77 1.048-3.021 0-0.824-0.152-1.526-0.456-2.106s-0.729-1.022-1.275-1.328c-0.547-0.336-1.215-0.504-2.004-0.504h-21.712v8.057z"></path>
      <path d="M108.291 32c-3.006 0-5.603-0.473-7.789-1.419-2.156-0.946-3.811-2.365-4.965-4.257s-1.731-4.242-1.731-7.050v-19.273h8.199v19.090c0 2.014 0.532 3.601 1.594 4.761s2.627 1.74 4.692 1.74 3.644-0.58 4.737-1.74c1.093-1.16 1.64-2.747 1.64-4.761v-19.090h8.154v19.273c0 2.808-0.577 5.158-1.731 7.050s-2.809 3.311-4.965 4.257c-2.156 0.946-4.768 1.419-7.835 1.419z"></path>
      <path d="M129.117 31.451v-31.451h8.154v13.963l12.39-13.963h10.112l-11.661 12.864 11.889 18.587h-9.657l-7.88-13.001-5.193 4.807v8.195h-8.154z"></path>
    </symbol>
    <symbol id="icon-menu" viewBox="0 0 58 32">
      <path d="M0 0h58.182v2.909h-58.182v-2.909z"></path>
      <path d="M0 14.545h58.182v2.909h-58.182v-2.909z"></path>
      <path d="M0 29.091h58.182v2.909h-58.182v-2.909z"></path>
    </symbol>
  </defs>
</svg>